<svg xmlns="http://www.w3.org/2000/svg" xmlns:xlink="http://www.w3.org/1999/xlink" width="50" zoomAndPan="magnify" viewBox="0 0 37.5 37.499999" height="50" preserveAspectRatio="xMidYMid meet" version="1.2"><defs><clipPath id="b8acbf1eb2"><path d="M 0.445312 0.445312 L 36.710938 0.445312 L 36.710938 36.710938 L 0.445312 36.710938 Z M 0.445312 0.445312 "/></clipPath><clipPath id="066c28b0c6"><path d="M 6.273438 6.523438 L 30.695312 6.523438 L 30.695312 30.207031 L 6.273438 30.207031 Z M 6.273438 6.523438 "/></clipPath></defs><g id="9bade26d12"><g clip-rule="nonzero" clip-path="url(#b8acbf1eb2)"><path style=" stroke:none;fill-rule:nonzero;fill:#af4c0f;fill-opacity:1;" d="M 18.503906 0.445312 C 8.539062 0.445312 0.445312 8.539062 0.445312 18.503906 C 0.445312 28.464844 8.539062 36.558594 18.503906 36.558594 C 28.464844 36.558594 36.558594 28.464844 36.558594 18.503906 C 36.558594 8.539062 28.464844 0.445312 18.503906 0.445312 Z M 18.503906 1.949219 C 27.652344 1.949219 35.054688 9.351562 35.054688 18.503906 C 35.054688 27.652344 27.652344 35.054688 18.503906 35.054688 C 9.351562 35.054688 1.949219 27.652344 1.949219 18.503906 C 1.949219 9.351562 9.351562 1.949219 18.503906 1.949219 Z M 18.503906 1.949219 "/></g><g clip-rule="nonzero" clip-path="url(#066c28b0c6)"><path style=" stroke:none;fill-rule:evenodd;fill:#af4c0f;fill-opacity:1;" d="M 18.324219 6.523438 C 11.660156 6.523438 6.273438 11.949219 6.273438 18.664062 C 6.273438 24.03125 9.722656 28.574219 14.511719 30.183594 C 15.113281 30.304688 15.332031 29.921875 15.332031 29.597656 C 15.332031 29.316406 15.3125 28.351562 15.3125 27.347656 C 11.957031 28.070312 11.261719 25.902344 11.261719 25.902344 C 10.722656 24.492188 9.921875 24.132812 9.921875 24.132812 C 8.824219 23.386719 10.003906 23.386719 10.003906 23.386719 C 11.21875 23.46875 11.859375 24.632812 11.859375 24.632812 C 12.9375 26.484375 14.671875 25.960938 15.371094 25.640625 C 15.46875 24.855469 15.789062 24.3125 16.128906 24.011719 C 13.457031 23.730469 10.640625 22.683594 10.640625 18.019531 C 10.640625 16.695312 11.121094 15.609375 11.878906 14.765625 C 11.757812 14.464844 11.339844 13.214844 12 11.546875 C 12 11.546875 13.015625 11.226562 15.3125 12.792969 C 16.296875 12.527344 17.300781 12.394531 18.324219 12.390625 C 19.339844 12.390625 20.378906 12.53125 21.335938 12.792969 C 23.632812 11.226562 24.648438 11.546875 24.648438 11.546875 C 25.308594 13.214844 24.886719 14.464844 24.769531 14.765625 C 25.546875 15.609375 26.007812 16.695312 26.007812 18.019531 C 26.007812 22.683594 23.191406 23.710938 20.5 24.011719 C 20.9375 24.394531 21.316406 25.117188 21.316406 26.261719 C 21.316406 27.890625 21.296875 29.195312 21.296875 29.597656 C 21.296875 29.921875 21.515625 30.304688 22.113281 30.183594 C 26.902344 28.574219 30.355469 24.03125 30.355469 18.664062 C 30.375 11.949219 24.96875 6.523438 18.324219 6.523438 Z M 18.324219 6.523438 "/></g></g></svg>