<?xml version="1.0" encoding="UTF-8" standalone="no"?>
<!-- Created with Inkscape (http://www.inkscape.org/) -->

<svg
   xmlns:dc="http://purl.org/dc/elements/1.1/"
   xmlns:cc="http://creativecommons.org/ns#"
   xmlns:rdf="http://www.w3.org/1999/02/22-rdf-syntax-ns#"
   xmlns:svg="http://www.w3.org/2000/svg"
   xmlns="http://www.w3.org/2000/svg"
   xmlns:sodipodi="http://sodipodi.sourceforge.net/DTD/sodipodi-0.dtd"
   xmlns:inkscape="http://www.inkscape.org/namespaces/inkscape"
   width="119.59167mm"
   height="168.80396mm"
   viewBox="0 0 119.59167 168.80396"
   version="1.1"
   id="svg8"
   inkscape:version="0.92.5 (2060ec1f9f, 2020-04-08)"
   sodipodi:docname="JS_logo.svg">
  <defs
     id="defs2">
	

		
	
			
			
			
			
			
		
				
				
			
				
				
				
				
			
				
				
			<clipPath
   clipPathUnits="userSpaceOnUse"
   id="clipPath4870">
  <path
     style="opacity:0;fill:#000000;stroke:#000000;stroke-width:0.80250877px;stroke-linecap:butt;stroke-linejoin:miter;stroke-opacity:1"
     d="m 311.76101,313.627 h 56.33379 v -54.07303 h -125.392 l -17.25394,59.78691 z"
     id="path4872"
     inkscape:connector-curvature="0" />
</clipPath>
<clipPath
   clipPathUnits="userSpaceOnUse"
   id="clipPath4902">
  <path
     style="opacity:0;fill:#000000;stroke:#000000;stroke-width:0.59008723px;stroke-linecap:butt;stroke-linejoin:miter;stroke-opacity:1"
     d="m 315.0631,221.716 h 50.46792 l 4.06597,-45.411 -54.53389,8e-4 v 45.41001"
     id="path4904"
     inkscape:connector-curvature="0" />
</clipPath>
</defs>
  <sodipodi:namedview
     id="base"
     pagecolor="#ffffff"
     bordercolor="#666666"
     borderopacity="1.0"
     inkscape:pageopacity="0.0"
     inkscape:pageshadow="2"
     inkscape:zoom="0.35355339"
     inkscape:cx="-253.93119"
     inkscape:cy="759.73758"
     inkscape:document-units="mm"
     inkscape:current-layer="layer1"
     showgrid="false"
     inkscape:window-width="1920"
     inkscape:window-height="1057"
     inkscape:window-x="-8"
     inkscape:window-y="-8"
     inkscape:window-maximized="1" />
  <metadata
     id="metadata5">
    <rdf:RDF>
      <cc:Work
         rdf:about="">
        <dc:format>image/svg+xml</dc:format>
        <dc:type
           rdf:resource="http://purl.org/dc/dcmitype/StillImage" />
        <dc:title></dc:title>
      </cc:Work>
    </rdf:RDF>
  </metadata>
  <g
     inkscape:label="Layer 1"
     inkscape:groupmode="layer"
     id="layer1"
     transform="translate(-18.036754,-79.371837)">
    <g
       id="g4976"
       transform="translate(449.76116,92.047625)">
      <polygon
         transform="matrix(0.32969523,0,0,0.32969523,-456.33055,-12.675788)"
         style="fill:#e5a32a;fill-opacity:1"
         id="polygon9"
         points="437.367,100.62 404.321,470.819 255.778,512 107.644,470.877 74.633,100.62 " />
      <polygon
         transform="matrix(0.32969523,0,0,0.32969523,-456.33055,-12.675788)"
         style="fill:#f2be20;fill-opacity:1"
         id="polygon11"
         points="376.03,447.246 404.27,130.894 256,130.894 256,480.523 " />
      <polygon
         transform="matrix(0.28858105,0,0,-0.32969523,-445.80533,148.85246)"
         points="256,176.305 255.843,176.305 142.132,176.305 143.219,188.488 154.38,313.627 256,313.627 256,268.217 195.91,268.217 191.76,221.716 256,221.716 "
         id="polygon15"
         style="fill:#ebebeb" />
      <polygon
         transform="matrix(0.32969523,0,0,0.32969523,-456.33055,-12.675788)"
         points="255.801,386.206 205.227,372.55 201.994,336.333 177.419,336.333 156.409,336.333 162.771,407.634 255.791,433.457 256,433.399 256,386.153 "
         id="polygon17"
         style="fill:#ebebeb" />
      <polygon
         transform="matrix(0.32969523,0,0,0.32969523,-456.33055,-12.675788)"
         points="255.843,313.627 311.761,313.627 306.49,372.521 255.843,386.191 255.843,433.435 348.937,407.634 349.62,399.962 360.291,280.411 361.399,268.217 349.162,268.217 255.843,268.217 "
         id="polygon31"
         style="fill:#ffffff" />
      <polygon
         clip-path="url(#clipPath4902)"
         transform="matrix(0.60978927,0,0,-0.32969523,-564.05067,118.54984)"
         points="255.843,204.509 255.843,221.605 255.843,221.716 365.385,221.716 365.531,221.716 366.442,211.509 368.511,188.488 369.597,176.305 255.843,176.305 "
         id="polygon33"
         style="fill:#ffffff" />
      <g
         transform="translate(-1.5434816)"
         id="g4961">
        <path
           style="stroke-width:0.32969522"
           d="m -374.10522,-12.675788 h -7.61069 V 2.563385 h -10.69959 v 7.524304 h 18.31028 z"
           id="path4930"
           inkscape:connector-curvature="0" />
        <g
           id="g4947"
           transform="translate(-1.5477999,30.682542)">
          <path
             sodipodi:nodetypes="ccccccc"
             style="stroke-width:0.32969522"
             d="m -346.80982,-28.11895 -7.61069,-2.07e-4 v 0 h -10.69959 v 7.524304 h 18.31028 z"
             id="path4932"
             inkscape:connector-curvature="0" />
          <path
             inkscape:connector-curvature="0"
             id="path4934"
             d="m -346.80982,-43.358123 -7.61069,-2.07e-4 v 0 h -10.69959 v 7.524304 h 18.31028 z"
             style="stroke-width:0.32969522"
             sodipodi:nodetypes="ccccccc" />
          <path
             sodipodi:nodetypes="ccccccc"
             style="stroke-width:0.32969522"
             d="m -346.80982,-28.11895 -5.40281,-5.3868 v 0 l -7.56575,-7.565753 -5.34172,5.237477 12.96856,13.030333 z"
             id="path4936"
             inkscape:connector-curvature="0" />
        </g>
      </g>
      <path
         inkscape:connector-curvature="0"
         id="path4928"
         d="m -352.05969,69.246478 c 0,-0.014 -1.62759,-9.613641 -1.6354,-9.645632 l -0.006,-0.0263 h 7.44007 7.44009 l 0.006,0.0263 c 0.008,0.03352 1.63587,9.634982 1.63581,9.646759 0,0.0048 -3.3481,0.0088 -7.44014,0.0088 -4.09205,0 -7.4401,-0.0044 -7.4401,-0.0099 z"
         style="opacity:1;fill:#ffffff;fill-opacity:1;stroke:#ffffff;stroke-width:0.00107127;stroke-linecap:butt;stroke-miterlimit:4;stroke-dasharray:none;stroke-dashoffset:0;stroke-opacity:1;paint-order:fill markers stroke" />
    </g>
  </g>
</svg>
