<svg xmlns="http://www.w3.org/2000/svg" xmlns:xlink="http://www.w3.org/1999/xlink" width="45" zoomAndPan="magnify" viewBox="0 0 33.75 33.749998" height="45" preserveAspectRatio="xMidYMid meet" version="1.2"><defs><clipPath id="36b777b02c"><path d="M 0.582031 0.585938 L 32.917969 0.585938 L 32.917969 32.917969 L 0.582031 32.917969 Z M 0.582031 0.585938 "/></clipPath><clipPath id="5d7151043a"><path d="M 16.75 0.585938 C 7.820312 0.585938 0.582031 7.824219 0.582031 16.753906 C 0.582031 25.679688 7.820312 32.917969 16.75 32.917969 C 25.675781 32.917969 32.917969 25.679688 32.917969 16.753906 C 32.917969 7.824219 25.675781 0.585938 16.75 0.585938 Z M 16.75 0.585938 "/></clipPath><clipPath id="44ab97696f"><path d="M 4.164062 4.167969 L 29.328125 4.167969 L 29.328125 29.332031 L 4.164062 29.332031 Z M 4.164062 4.167969 "/></clipPath><clipPath id="0099ea4699"><path d="M 4.164062 16.753906 C 4.164062 23.703125 9.800781 29.335938 16.75 29.335938 C 23.699219 29.335938 29.332031 23.703125 29.332031 16.753906 C 29.332031 9.804688 23.699219 4.167969 16.75 4.167969 C 9.800781 4.167969 4.164062 9.804688 4.164062 16.753906 Z M 4.164062 16.753906 "/></clipPath><clipPath id="ff6dd37e7d"><path d="M 8 7 L 26 7 L 26 26 L 8 26 Z M 8 7 "/></clipPath><clipPath id="02cbe47bec"><path d="M 4.164062 16.753906 C 4.164062 23.703125 9.800781 29.335938 16.75 29.335938 C 23.699219 29.335938 29.332031 23.703125 29.332031 16.753906 C 29.332031 9.804688 23.699219 4.167969 16.75 4.167969 C 9.800781 4.167969 4.164062 9.804688 4.164062 16.753906 Z M 4.164062 16.753906 "/></clipPath></defs><g id="7f5f3a237c"><g clip-rule="nonzero" clip-path="url(#36b777b02c)"><g clip-rule="nonzero" clip-path="url(#5d7151043a)"><path style=" stroke:none;fill-rule:nonzero;fill:#8c52ff;fill-opacity:1;" d="M 0.582031 0.585938 L 32.917969 0.585938 L 32.917969 32.917969 L 0.582031 32.917969 Z M 0.582031 0.585938 "/></g></g><g clip-rule="nonzero" clip-path="url(#44ab97696f)"><g clip-rule="nonzero" clip-path="url(#0099ea4699)"><path style=" stroke:none;fill-rule:nonzero;fill:#8c52ff;fill-opacity:1;" d="M 8.507812 4.167969 C 6.101562 4.167969 4.164062 6.105469 4.164062 8.511719 L 4.164062 24.988281 C 4.164062 27.394531 6.101562 29.332031 8.507812 29.332031 L 24.984375 29.332031 C 27.390625 29.332031 29.328125 27.394531 29.328125 24.988281 L 29.328125 8.511719 C 29.328125 6.105469 27.390625 4.167969 24.984375 4.167969 Z M 8.507812 4.167969 "/></g></g><g clip-rule="nonzero" clip-path="url(#ff6dd37e7d)"><g clip-rule="nonzero" clip-path="url(#02cbe47bec)"><path style=" stroke:none;fill-rule:nonzero;fill:#ffffff;fill-opacity:1;" d="M 17.066406 7.496094 C 14.699219 7.496094 12.433594 8.433594 10.761719 10.105469 C 9.089844 11.777344 8.148438 14.046875 8.148438 16.410156 C 8.160156 17.960938 8.578125 19.484375 9.355469 20.828125 C 9.34375 20.847656 9.332031 20.867188 9.332031 20.882812 C 9.304688 21.074219 8.671875 23.332031 8.3125 24.542969 C 8.082031 25.3125 8.074219 25.394531 8.230469 25.394531 C 8.292969 25.394531 9.339844 25.132812 10.554688 24.8125 C 11.984375 24.433594 12.496094 24.296875 12.8125 24.21875 C 14.117188 24.9375 15.578125 25.316406 17.066406 25.324219 C 19.429688 25.324219 21.695312 24.382812 23.367188 22.710938 C 25.039062 21.039062 25.980469 18.773438 25.980469 16.410156 C 25.980469 15.238281 25.75 14.078125 25.300781 12.996094 C 24.851562 11.917969 24.195312 10.933594 23.367188 10.105469 C 22.539062 9.277344 21.558594 8.621094 20.476562 8.171875 C 19.394531 7.726562 18.234375 7.496094 17.066406 7.496094 Z M 17.066406 8.769531 C 18.066406 8.769531 19.0625 8.964844 19.988281 9.351562 C 20.914062 9.734375 21.757812 10.296875 22.46875 11.007812 C 23.175781 11.714844 23.738281 12.558594 24.125 13.484375 C 24.507812 14.414062 24.707031 15.40625 24.707031 16.410156 C 24.707031 18.4375 23.898438 20.378906 22.46875 21.8125 C 21.035156 23.246094 19.089844 24.050781 17.066406 24.050781 C 15.550781 24.042969 14.070312 23.585938 12.816406 22.738281 L 11.230469 23.140625 C 11.226562 23.140625 11.222656 23.144531 11.21875 23.144531 C 10.886719 23.21875 10.246094 23.375 10.21875 23.347656 C 10.191406 23.324219 10.273438 22.964844 10.425781 22.3125 L 10.8125 20.785156 C 9.914062 19.503906 9.425781 17.976562 9.425781 16.410156 C 9.425781 14.382812 10.230469 12.4375 11.660156 11.007812 C 13.09375 9.574219 15.039062 8.769531 17.066406 8.769531 Z M 14.109375 12.175781 C 13.835938 12.1875 13.53125 12.3125 13.292969 12.527344 C 12.75 13.023438 12.554688 13.480469 12.550781 14.277344 C 12.546875 15.394531 13.175781 16.546875 14.597656 18.03125 C 15.796875 19.277344 16.703125 19.863281 18.25 20.390625 C 19.113281 20.683594 19.398438 20.707031 20.070312 20.539062 C 20.367188 20.464844 20.71875 20.257812 21.011719 19.988281 C 21.421875 19.613281 21.488281 19.492188 21.542969 19.015625 L 21.578125 18.714844 C 21.585938 18.609375 21.488281 18.421875 21.34375 18.339844 L 20.632812 17.996094 C 20.097656 17.734375 19.558594 17.519531 19.4375 17.519531 C 19.21875 17.519531 19.019531 17.699219 18.695312 18.199219 C 18.367188 18.699219 18.21875 18.703125 17.324219 18.257812 C 16.40625 17.796875 15.410156 16.882812 15 16.128906 L 14.828125 15.816406 C 14.789062 15.742188 14.792969 15.609375 14.835938 15.550781 L 15.128906 15.167969 C 15.339844 14.890625 15.511719 14.589844 15.511719 14.492188 C 15.511719 14.238281 14.699219 12.371094 14.542969 12.273438 C 14.425781 12.199219 14.273438 12.167969 14.109375 12.175781 Z M 14.109375 12.175781 "/></g></g></g></svg>