<svg xmlns="http://www.w3.org/2000/svg" xmlns:xlink="http://www.w3.org/1999/xlink" width="55" zoomAndPan="magnify" viewBox="0 0 41.25 41.250001" height="55" preserveAspectRatio="xMidYMid meet" version="1.2"><defs><clipPath id="517a2248c4"><path d="M 0.703125 0.707031 L 39.804688 0.707031 L 39.804688 39.808594 L 0.703125 39.808594 Z M 0.703125 0.707031 "/></clipPath><clipPath id="20433aae77"><path d="M 20.253906 0.707031 C 9.457031 0.707031 0.703125 9.460938 0.703125 20.257812 C 0.703125 31.054688 9.457031 39.808594 20.253906 39.808594 C 31.050781 39.808594 39.804688 31.054688 39.804688 20.257812 C 39.804688 9.460938 31.050781 0.707031 20.253906 0.707031 Z M 20.253906 0.707031 "/></clipPath><clipPath id="d5c0d7c901"><path d="M 5.039062 5.042969 L 35.238281 5.042969 L 35.238281 35.242188 L 5.039062 35.242188 Z M 5.039062 5.042969 "/></clipPath><clipPath id="f0fb721596"><path d="M 5.039062 20.257812 C 5.039062 24.292969 6.640625 28.164062 9.496094 31.019531 C 12.347656 33.871094 16.21875 35.476562 20.253906 35.476562 C 24.289062 35.476562 28.160156 33.871094 31.011719 31.019531 C 33.867188 28.164062 35.46875 24.292969 35.46875 20.257812 C 35.46875 16.222656 33.867188 12.351562 31.011719 9.5 C 28.160156 6.644531 24.289062 5.042969 20.253906 5.042969 C 16.21875 5.042969 12.347656 6.644531 9.496094 9.5 C 6.640625 12.351562 5.039062 16.222656 5.039062 20.257812 Z M 5.039062 20.257812 "/></clipPath><clipPath id="ed630354e1"><path d="M 9 9 L 32 9 L 32 31 L 9 31 Z M 9 9 "/></clipPath><clipPath id="db8af0ac4e"><path d="M 5.039062 20.257812 C 5.039062 24.292969 6.640625 28.164062 9.496094 31.019531 C 12.347656 33.871094 16.21875 35.476562 20.253906 35.476562 C 24.289062 35.476562 28.160156 33.871094 31.011719 31.019531 C 33.867188 28.164062 35.46875 24.292969 35.46875 20.257812 C 35.46875 16.222656 33.867188 12.351562 31.011719 9.5 C 28.160156 6.644531 24.289062 5.042969 20.253906 5.042969 C 16.21875 5.042969 12.347656 6.644531 9.496094 9.5 C 6.640625 12.351562 5.039062 16.222656 5.039062 20.257812 Z M 5.039062 20.257812 "/></clipPath></defs><g id="760f173906"><g clip-rule="nonzero" clip-path="url(#517a2248c4)"><g clip-rule="nonzero" clip-path="url(#20433aae77)"><path style=" stroke:none;fill-rule:nonzero;fill:#8c52ff;fill-opacity:1;" d="M 0.703125 0.707031 L 39.804688 0.707031 L 39.804688 39.808594 L 0.703125 39.808594 Z M 0.703125 0.707031 "/></g></g><g clip-rule="nonzero" clip-path="url(#d5c0d7c901)"><g clip-rule="nonzero" clip-path="url(#f0fb721596)"><path style=" stroke:none;fill-rule:nonzero;fill:#8c52ff;fill-opacity:1;" d="M 10.25 5.042969 C 7.363281 5.042969 5.039062 7.367188 5.039062 10.253906 L 5.039062 30.03125 C 5.039062 32.917969 7.363281 35.242188 10.25 35.242188 L 30.027344 35.242188 C 32.914062 35.242188 35.238281 32.917969 35.238281 30.03125 L 35.238281 10.253906 C 35.238281 7.367188 32.914062 5.042969 30.027344 5.042969 Z M 10.25 5.042969 "/></g></g><g clip-rule="nonzero" clip-path="url(#ed630354e1)"><g clip-rule="nonzero" clip-path="url(#db8af0ac4e)"><path style=" stroke:none;fill-rule:nonzero;fill:#ffffff;fill-opacity:1;" d="M 20.519531 9.035156 C 17.683594 9.035156 14.960938 10.160156 12.953125 12.167969 C 10.949219 14.175781 9.820312 16.894531 9.820312 19.734375 C 9.832031 21.597656 10.332031 23.425781 11.265625 25.035156 C 11.253906 25.058594 11.242188 25.082031 11.238281 25.101562 C 11.207031 25.332031 10.445312 28.042969 10.015625 29.496094 C 9.738281 30.421875 9.730469 30.515625 9.914062 30.515625 C 9.992188 30.515625 11.246094 30.203125 12.707031 29.816406 C 14.421875 29.367188 15.035156 29.203125 15.417969 29.105469 C 16.980469 29.96875 18.734375 30.421875 20.519531 30.433594 C 23.359375 30.433594 26.078125 29.304688 28.085938 27.300781 C 30.09375 25.292969 31.21875 22.570312 31.21875 19.734375 C 31.21875 18.328125 30.945312 16.9375 30.40625 15.636719 C 29.867188 14.339844 29.078125 13.160156 28.085938 12.167969 C 27.09375 11.171875 25.914062 10.386719 24.613281 9.847656 C 23.316406 9.308594 21.925781 9.035156 20.519531 9.035156 Z M 20.519531 10.5625 C 21.722656 10.5625 22.917969 10.800781 24.03125 11.261719 C 25.140625 11.722656 26.152344 12.398438 27.003906 13.25 C 27.855469 14.101562 28.53125 15.109375 28.992188 16.222656 C 29.453125 17.335938 29.691406 18.527344 29.691406 19.734375 C 29.691406 22.164062 28.726562 24.5 27.003906 26.21875 C 25.285156 27.9375 22.953125 28.902344 20.519531 28.902344 C 18.703125 28.898438 16.925781 28.347656 15.421875 27.332031 L 13.519531 27.8125 C 13.515625 27.8125 13.507812 27.816406 13.503906 27.816406 C 13.105469 27.90625 12.335938 28.09375 12.300781 28.0625 C 12.269531 28.03125 12.367188 27.601562 12.554688 26.820312 L 13.015625 24.988281 C 11.933594 23.449219 11.351562 21.613281 11.347656 19.734375 C 11.347656 17.300781 12.316406 14.96875 14.035156 13.25 C 15.753906 11.527344 18.085938 10.5625 20.519531 10.5625 Z M 16.972656 14.652344 C 16.644531 14.667969 16.277344 14.816406 15.996094 15.074219 C 15.339844 15.671875 15.105469 16.21875 15.101562 17.175781 C 15.097656 18.515625 15.851562 19.898438 17.558594 21.679688 C 19 23.179688 20.082031 23.878906 21.945312 24.511719 C 22.976562 24.867188 23.324219 24.894531 24.128906 24.691406 C 24.484375 24.601562 24.90625 24.355469 25.257812 24.03125 C 25.75 23.578125 25.832031 23.433594 25.894531 22.859375 L 25.9375 22.5 C 25.945312 22.371094 25.828125 22.152344 25.65625 22.050781 L 24.800781 21.636719 C 24.160156 21.324219 23.515625 21.066406 23.371094 21.066406 C 23.101562 21.066406 22.867188 21.28125 22.476562 21.878906 C 22.082031 22.480469 21.902344 22.488281 20.832031 21.949219 C 19.730469 21.398438 18.535156 20.304688 18.042969 19.398438 L 17.835938 19.019531 C 17.789062 18.933594 17.796875 18.777344 17.847656 18.703125 L 18.199219 18.242188 C 18.449219 17.914062 18.65625 17.546875 18.65625 17.429688 C 18.65625 17.125 17.679688 14.886719 17.496094 14.769531 C 17.351562 14.679688 17.167969 14.640625 16.972656 14.652344 Z M 16.972656 14.652344 "/></g></g></g></svg>